<?xml version="1.0" encoding="utf-8"?>
<!-- Generator: Adobe Illustrator 27.5.0, SVG Export Plug-In . SVG Version: 6.00 Build 0)  -->
<svg version="1.1" xmlns="http://www.w3.org/2000/svg" xmlns:xlink="http://www.w3.org/1999/xlink" x="0px" y="0px"
	 viewBox="0 0 500 500" style="enable-background:new 0 0 500 500;" xml:space="preserve">
<g id="BACKGROUND">
	<g>
		<rect style="fill:#3F195E;" width="500" height="500"/>
		<path style="fill:#6B3099;" d="M147.965,383.201h204.408c37.528-30.012,61.573-76.178,61.573-127.968
			c0-90.452-73.326-163.777-163.777-163.777c-90.451,0-163.777,73.326-163.777,163.777
			C86.392,307.023,110.437,353.19,147.965,383.201z"/>
	</g>
</g>
<g id="OBJECTS">
	<g>
		<path style="fill:#6B3099;" d="M88.834,212.119c-0.008-0.416-0.351-0.746-0.766-0.738l-2.637,0.049
			c-0.521-1.603-1.394-3.093-2.598-4.333l1.271-2.298c0.201-0.364,0.069-0.822-0.294-1.023l-4.386-2.425
			c-0.364-0.201-0.821-0.069-1.022,0.294l-1.271,2.298c-1.691-0.36-3.417-0.307-5.051,0.104l-1.361-2.26
			c-0.214-0.356-0.677-0.471-1.033-0.256l-4.293,2.586c-0.356,0.214-0.471,0.677-0.256,1.033l1.359,2.256
			c-0.558,0.62-1.061,1.305-1.482,2.066c-0.421,0.761-0.733,1.552-0.962,2.354l-2.633,0.049c-0.415,0.008-0.746,0.351-0.738,0.766
			l0.093,5.011c0.008,0.416,0.351,0.746,0.766,0.738l2.637-0.049c0.521,1.603,1.394,3.093,2.598,4.333l-1.271,2.298
			c-0.201,0.364-0.069,0.821,0.294,1.022l4.386,2.425c0.364,0.201,0.821,0.069,1.022-0.294l1.271-2.298
			c1.691,0.36,3.417,0.307,5.051-0.104l1.361,2.26c0.214,0.356,0.677,0.471,1.033,0.256l4.293-2.586
			c0.356-0.214,0.471-0.677,0.256-1.033l-1.359-2.256c0.558-0.62,1.061-1.305,1.482-2.066c0.421-0.761,0.733-1.551,0.962-2.354
			l2.633-0.049c0.415-0.008,0.746-0.351,0.738-0.766L88.834,212.119z M69.264,211.823c1.689-3.054,5.547-4.165,8.601-2.476
			c3.054,1.689,4.165,5.547,2.476,8.601c-1.688,3.054-5.547,4.165-8.601,2.476C68.686,218.735,67.576,214.877,69.264,211.823z"/>
		<path style="fill:#6B3099;" d="M454.298,285.84c-0.008-0.415-0.351-0.746-0.766-0.738l-2.637,0.049
			c-0.521-1.603-1.394-3.093-2.598-4.333l1.271-2.298c0.201-0.364,0.069-0.821-0.294-1.022l-4.386-2.425
			c-0.364-0.201-0.821-0.069-1.022,0.294l-1.271,2.298c-1.691-0.36-3.417-0.307-5.051,0.104l-1.361-2.26
			c-0.215-0.356-0.677-0.471-1.033-0.256l-4.293,2.586c-0.356,0.214-0.471,0.677-0.256,1.033l1.359,2.256
			c-0.558,0.62-1.061,1.305-1.482,2.066c-0.421,0.761-0.733,1.551-0.962,2.353l-2.633,0.049c-0.415,0.008-0.746,0.351-0.738,0.766
			l0.093,5.011c0.008,0.415,0.351,0.746,0.766,0.738l2.637-0.049c0.521,1.603,1.394,3.093,2.598,4.333l-1.271,2.298
			c-0.201,0.364-0.069,0.821,0.294,1.023l4.386,2.425c0.364,0.201,0.821,0.069,1.022-0.294l1.271-2.298
			c1.691,0.36,3.417,0.307,5.051-0.104l1.361,2.26c0.214,0.356,0.677,0.471,1.033,0.256l4.293-2.586
			c0.356-0.215,0.471-0.677,0.256-1.033l-1.359-2.256c0.558-0.62,1.061-1.305,1.482-2.066c0.421-0.761,0.733-1.552,0.962-2.354
			l2.634-0.049c0.415-0.008,0.746-0.351,0.738-0.766L454.298,285.84z M434.729,285.544c1.689-3.054,5.547-4.165,8.601-2.476
			c3.054,1.689,4.165,5.547,2.476,8.601c-1.688,3.054-5.547,4.165-8.601,2.476C434.151,292.456,433.04,288.598,434.729,285.544z"/>
		<path style="fill:none;stroke:#FF6196;stroke-width:15;stroke-linecap:round;stroke-linejoin:bevel;stroke-miterlimit:10;" d="
			M67.479,310.37l39.246,56.808c2.154,3.118,6.72,3.241,9.038,0.243l64.309-83.163l45.43,58.426l65.297-86.767l42.506,38.569
			L442.629,186.88"/>
		<path style="fill:#2C1D3A;" d="M377.75,376.815H68.838c-3.825,0-7.161,2.947-7.275,6.771c-0.119,3.956,3.053,7.201,6.982,7.201
			h27.311c3.269,0,5.76,2.725,5.725,5.994c0,0.026,0,0.052,0,0.078v0c0,3.858,3.128,6.986,6.986,6.986h155.755
			c3.858,0,6.986-3.128,6.986-6.986l0,0c0-0.026,0-0.052,0-0.078c-0.036-3.269,2.456-5.994,5.725-5.994h100.426
			c3.825,0,7.161-2.947,7.275-6.771C384.851,380.059,381.679,376.815,377.75,376.815z"/>
		
			<polyline style="fill:none;stroke:#FF6196;stroke-width:15;stroke-linecap:round;stroke-linejoin:round;stroke-miterlimit:10;" points="
			395.623,186.88 442.629,186.88 442.629,233.887 		"/>
		<g>
			<g>
				<path style="fill:#FF6196;" d="M421.995,357.452c0,1.584-1.284,2.868-2.868,2.868c-1.584,0-2.868-1.284-2.868-2.868
					c0-1.584,1.284-2.868,2.868-2.868C420.711,354.584,421.995,355.868,421.995,357.452z"/>
				
					<ellipse transform="matrix(0.2803 -0.9599 0.9599 0.2803 -41.4621 659.6066)" style="fill:none;stroke:#FFFFFF;stroke-miterlimit:10;" cx="419.126" cy="357.452" rx="8.031" ry="8.031"/>
			</g>
			<g>
				<g>
					
						<line style="fill:none;stroke:#FFFFFF;stroke-linecap:round;stroke-miterlimit:10;" x1="419.126" y1="346.269" x2="419.126" y2="343.769"/>
					<path style="fill:none;stroke:#FFFFFF;stroke-linecap:round;stroke-miterlimit:10;stroke-dasharray:5.2099,5.2099;" d="
						M419.126,338.56v-17.326c0-6.475-5.249-11.724-11.724-11.724h-34.596"/>
					
						<line style="fill:none;stroke:#FFFFFF;stroke-linecap:round;stroke-miterlimit:10;" x1="370.201" y1="309.509" x2="367.701" y2="309.509"/>
				</g>
			</g>
		</g>
		<g>
			<g>
				<path style="fill:#FF6196;" d="M328.73,136.834c0,1.584-1.284,2.868-2.868,2.868c-1.584,0-2.868-1.284-2.868-2.868
					c0-1.584,1.284-2.868,2.868-2.868C327.446,133.965,328.73,135.249,328.73,136.834z"/>
				
					<ellipse transform="matrix(0.622 -0.783 0.783 0.622 16.0375 306.8874)" style="fill:none;stroke:#FFFFFF;stroke-miterlimit:10;" cx="325.862" cy="136.834" rx="8.031" ry="8.031"/>
			</g>
			<path style="fill:none;stroke:#FFFFFF;stroke-linecap:round;stroke-miterlimit:10;stroke-dasharray:5;" d="M325.862,128.802
				v-6.464c0-10.054,8.15-18.204,18.204-18.204h68.344c10.054,0,18.204,8.15,18.204,18.204v48.97"/>
		</g>
		<g>
			<g>
				<path style="fill:#FF6196;" d="M89.279,132.894c0,1.584-1.284,2.868-2.868,2.868c-1.584,0-2.868-1.284-2.868-2.868
					c0-1.584,1.284-2.868,2.868-2.868C87.994,130.026,89.279,131.31,89.279,132.894z"/>
				
					<ellipse transform="matrix(0.7071 -0.7071 0.7071 0.7071 -68.6614 100.0251)" style="fill:none;stroke:#FFFFFF;stroke-miterlimit:10;" cx="86.41" cy="132.894" rx="8.031" ry="8.031"/>
			</g>
			<path style="fill:none;stroke:#FFFFFF;stroke-linecap:round;stroke-miterlimit:10;stroke-dasharray:5;" d="M94.442,132.894
				h58.337c8.17,0,14.794,6.624,14.794,14.794v15.037"/>
		</g>
		<path style="fill:#2C1D3A;" d="M401.481,433.303H286.432c-2.975,0-5.386-2.411-5.386-5.386v-0.248
			c0-2.975,2.411-5.386,5.386-5.386h115.049c2.974,0,5.386,2.411,5.386,5.386v0.248
			C406.867,430.892,404.456,433.303,401.481,433.303z"/>
		
			<line style="fill:none;stroke:#FFFFFF;stroke-linecap:round;stroke-miterlimit:10;" x1="356.82" y1="158.955" x2="378.645" y2="158.955"/>
		<g>
			<g>
				
					<line style="fill:none;stroke:#FFFFFF;stroke-width:2;stroke-miterlimit:10;" x1="89.279" y1="168.385" x2="89.279" y2="172.641"/>
				
					<line style="fill:none;stroke:#FFFFFF;stroke-width:2;stroke-miterlimit:10;" x1="89.279" y1="176.965" x2="89.279" y2="181.221"/>
			</g>
			<g>
				
					<line style="fill:none;stroke:#FFFFFF;stroke-width:2;stroke-miterlimit:10;" x1="95.696" y1="174.803" x2="91.441" y2="174.803"/>
				
					<line style="fill:none;stroke:#FFFFFF;stroke-width:2;stroke-miterlimit:10;" x1="87.116" y1="174.803" x2="82.861" y2="174.803"/>
			</g>
		</g>
		<g>
			<g>
				
					<line style="fill:none;stroke:#FFFFFF;stroke-width:2;stroke-miterlimit:10;" x1="264.652" y1="111.631" x2="262.411" y2="114.296"/>
				
					<line style="fill:none;stroke:#FFFFFF;stroke-width:2;stroke-miterlimit:10;" x1="260.133" y1="117.005" x2="257.892" y2="119.671"/>
			</g>
			<g>
				
					<line style="fill:none;stroke:#FFFFFF;stroke-width:2;stroke-miterlimit:10;" x1="265.292" y1="119.031" x2="262.627" y2="116.79"/>
				
					<line style="fill:none;stroke:#FFFFFF;stroke-width:2;stroke-miterlimit:10;" x1="259.918" y1="114.512" x2="257.252" y2="112.271"/>
			</g>
		</g>
		<g>
			<g>
				
					<line style="fill:none;stroke:#FFFFFF;stroke-width:2;stroke-miterlimit:10;" x1="439.627" y1="312.881" x2="437.386" y2="315.547"/>
				
					<line style="fill:none;stroke:#FFFFFF;stroke-width:2;stroke-miterlimit:10;" x1="435.109" y1="318.256" x2="432.867" y2="320.921"/>
			</g>
			<g>
				
					<line style="fill:none;stroke:#FFFFFF;stroke-width:2;stroke-miterlimit:10;" x1="440.267" y1="320.281" x2="437.602" y2="318.04"/>
				
					<line style="fill:none;stroke:#FFFFFF;stroke-width:2;stroke-miterlimit:10;" x1="434.893" y1="315.762" x2="432.227" y2="313.521"/>
			</g>
		</g>
		<g>
			<g>
				
					<line style="fill:none;stroke:#FFFFFF;stroke-width:2;stroke-miterlimit:10;" x1="102.259" y1="286.845" x2="100.018" y2="289.511"/>
				
					<line style="fill:none;stroke:#FFFFFF;stroke-width:2;stroke-miterlimit:10;" x1="97.741" y1="292.22" x2="95.499" y2="294.885"/>
			</g>
			<g>
				
					<line style="fill:none;stroke:#FFFFFF;stroke-width:2;stroke-miterlimit:10;" x1="102.899" y1="294.245" x2="100.234" y2="292.004"/>
				
					<line style="fill:none;stroke:#FFFFFF;stroke-width:2;stroke-miterlimit:10;" x1="97.525" y1="289.727" x2="94.859" y2="287.486"/>
			</g>
		</g>
		<g>
			<g>
				
					<line style="fill:none;stroke:#FFFFFF;stroke-width:2;stroke-miterlimit:10;" x1="414.985" y1="119.458" x2="411.243" y2="123.909"/>
				
					<line style="fill:none;stroke:#FFFFFF;stroke-width:2;stroke-miterlimit:10;" x1="407.44" y1="128.432" x2="403.698" y2="132.883"/>
			</g>
			<g>
				
					<line style="fill:none;stroke:#FFFFFF;stroke-width:2;stroke-miterlimit:10;" x1="416.054" y1="131.814" x2="411.603" y2="128.072"/>
				
					<line style="fill:none;stroke:#FFFFFF;stroke-width:2;stroke-miterlimit:10;" x1="407.08" y1="124.269" x2="402.629" y2="120.527"/>
			</g>
		</g>
		<path style="fill:none;stroke:#FFFFFF;stroke-width:2;stroke-miterlimit:10;" d="M306.109,121.07c0,2.245-1.82,4.064-4.064,4.064
			c-2.245,0-4.064-1.82-4.064-4.064c0-2.245,1.82-4.064,4.064-4.064C304.29,117.005,306.109,118.825,306.109,121.07z"/>
		<path style="fill:none;stroke:#FFFFFF;stroke-width:2;stroke-miterlimit:10;" d="M85.481,104.177c0,1.303-1.056,2.359-2.359,2.359
			c-1.303,0-2.359-1.056-2.359-2.359s1.056-2.359,2.359-2.359C84.425,101.818,85.481,102.874,85.481,104.177z"/>
		<path style="fill:none;stroke:#FFFFFF;stroke-width:2;stroke-miterlimit:10;" d="M77.685,273.422c0,1.192-0.966,2.158-2.158,2.158
			c-1.192,0-2.158-0.966-2.158-2.158c0-1.192,0.966-2.158,2.158-2.158C76.719,271.263,77.685,272.229,77.685,273.422z"/>
		<circle style="fill:none;stroke:#FFFFFF;stroke-width:2;stroke-miterlimit:10;" cx="426.305" cy="390.572" r="4.31"/>
		<path style="fill:none;stroke:#FFFFFF;stroke-width:2;stroke-miterlimit:10;" d="M251.923,91.141
			c-1.635-3.143-0.412-7.016,2.731-8.651c3.143-1.635,7.016-0.412,8.651,2.731"/>
		<path style="fill:#FFFFFF;" d="M138.862,388.801c0,1.402-1.136,2.538-2.538,2.538c-1.402,0-2.538-1.136-2.538-2.538
			c0-1.402,1.136-2.538,2.538-2.538C137.726,386.263,138.862,387.399,138.862,388.801z"/>
		<path style="fill:#FFFFFF;" d="M76.237,358.887c0,0.792-0.642,1.434-1.434,1.434s-1.434-0.642-1.434-1.434
			c0-0.792,0.642-1.434,1.434-1.434S76.237,358.094,76.237,358.887z"/>
		<path style="fill:#FFFFFF;" d="M221.384,77.08c0,0.808-0.655,1.463-1.463,1.463c-0.808,0-1.463-0.655-1.463-1.463
			c0-0.808,0.655-1.463,1.463-1.463C220.729,75.618,221.384,76.272,221.384,77.08z"/>
		<path style="fill:#FFFFFF;" d="M382.718,117.757c0,0.775-0.628,1.404-1.404,1.404c-0.775,0-1.404-0.628-1.404-1.404
			c0-0.775,0.628-1.404,1.404-1.404C382.09,116.353,382.718,116.982,382.718,117.757z"/>
		<path style="fill:#FFFFFF;" d="M190.79,153.546c0,0.986-0.8,1.786-1.786,1.786c-0.986,0-1.786-0.8-1.786-1.786
			s0.8-1.786,1.786-1.786C189.99,151.76,190.79,152.559,190.79,153.546z"/>
		<path style="fill:#6B3099;" d="M327.801,83.212c-0.006-0.324-0.273-0.581-0.597-0.575l-2.055,0.038
			c-0.406-1.249-1.086-2.41-2.024-3.376l0.99-1.79c0.157-0.283,0.054-0.64-0.229-0.797l-3.417-1.889
			c-0.283-0.157-0.64-0.054-0.797,0.229l-0.99,1.79c-1.317-0.281-2.662-0.24-3.935,0.081l-1.06-1.76
			c-0.167-0.277-0.527-0.367-0.805-0.2l-3.345,2.014c-0.277,0.167-0.367,0.527-0.2,0.805l1.059,1.758
			c-0.435,0.483-0.827,1.017-1.154,1.61c-0.328,0.593-0.571,1.209-0.75,1.834l-2.052,0.038c-0.324,0.006-0.581,0.273-0.575,0.597
			l0.072,3.904c0.006,0.324,0.273,0.581,0.597,0.575l2.055-0.038c0.406,1.249,1.086,2.41,2.024,3.376l-0.99,1.791
			c-0.157,0.283-0.054,0.64,0.229,0.797l3.417,1.889c0.283,0.157,0.64,0.054,0.797-0.229l0.99-1.79
			c1.317,0.281,2.662,0.239,3.936-0.081l1.06,1.76c0.167,0.277,0.527,0.367,0.805,0.2l3.345-2.015
			c0.277-0.167,0.367-0.527,0.2-0.805l-1.059-1.758c0.434-0.483,0.827-1.017,1.154-1.61c0.328-0.593,0.571-1.209,0.75-1.834
			l2.052-0.038c0.324-0.006,0.581-0.273,0.575-0.597L327.801,83.212z M312.982,83.218c1.185-2.144,3.894-2.923,6.037-1.738
			c2.144,1.185,2.923,3.894,1.738,6.037c-1.185,2.144-3.893,2.923-6.037,1.738C312.576,88.07,311.796,85.362,312.982,83.218z"/>
	</g>
	<g>
		<g>
			<path style="fill:#30124C;" d="M259.027,324.954v10.809c0,5.97-4.839,10.809-10.809,10.809l0,0
				c-5.969,0-10.809-4.839-10.809-10.809v-10.809h-18.95v39.915h59.518v-39.915H259.027z"/>
			<path style="fill:#1F175B;" d="M364.494,179.116c0-7.953-6.447-14.4-14.4-14.4H164.216c0.001,0.061,0.01,0.122,0.01,0.184
				v163.795h185.868c7.953,0,14.4-6.447,14.4-14.4V179.116z"/>
			<path style="fill:#120F44;" d="M180.584,328.695c-7.953,0-14.4-6.447-14.4-14.4V179.116c0-7.953,6.447-14.4,14.4-14.4h-34.242
				c-7.953,0-14.4,6.447-14.4,14.4v135.179c0,7.953,6.447,14.4,14.4,14.4H180.584z"/>
			<path style="fill:#AFE6FF;" d="M150.468,314.87c-3.343,0-6.053-2.71-6.053-6.053V192.065h207.606v116.752
				c0,3.343-2.71,6.053-6.053,6.053H150.468z"/>
			<g>
				<path style="fill:#E84281;" d="M289.618,310.532h-79.02c-4.236,0-7.671-3.434-7.671-7.671v-0.353
					c0-4.236,3.434-7.671,7.671-7.671h79.02c4.236,0,7.671,3.434,7.671,7.671v0.353
					C297.289,307.098,293.854,310.532,289.618,310.532z"/>
				
					<line style="fill:none;stroke:#FF6196;stroke-width:4;stroke-linecap:round;stroke-miterlimit:10;" x1="217.383" y1="302.685" x2="282.832" y2="302.685"/>
			</g>
			<path style="fill:#79BCD3;" d="M190.007,281.98h-25.479c-1.407,0-2.548-1.141-2.548-2.548v-71.029
				c0-1.407,1.141-2.548,2.548-2.548h25.479c1.407,0,2.548,1.141,2.548,2.548v71.029C192.555,280.839,191.414,281.98,190.007,281.98
				z"/>
			<path style="fill:#79BCD3;" d="M339.29,238.953h-35.16c-1.407,0-2.548-1.141-2.548-2.548v-29.4c0-1.407,1.141-2.548,2.548-2.548
				h35.16c1.407,0,2.548,1.141,2.548,2.548v29.4C341.838,237.812,340.698,238.953,339.29,238.953z"/>
			<path style="fill:#79BCD3;" d="M339.29,281.974h-35.16c-1.407,0-2.548-1.141-2.548-2.548v-29.401
				c0-1.407,1.141-2.548,2.548-2.548h35.16c1.407,0,2.548,1.141,2.548,2.548v29.401C341.838,280.833,340.698,281.974,339.29,281.974
				z"/>
			<path style="fill:#6B3099;" d="M345.052,178.541H151.384c-3.849,0-6.969,3.12-6.969,6.969v8.919h207.606v-8.919
				C352.021,181.662,348.901,178.541,345.052,178.541z"/>
			<path style="fill:#00B7F0;" d="M297.228,376.916H199.99v-1.906c0-7.343,5.953-13.296,13.296-13.296h70.646
				c7.343,0,13.296,5.953,13.296,13.296V376.916z"/>
			<path style="fill:#FFFFFF;" d="M341.838,186.385c0,1.228-0.995,2.223-2.223,2.223c-1.228,0-2.223-0.995-2.223-2.223
				c0-1.228,0.995-2.223,2.223-2.223C340.843,184.162,341.838,185.157,341.838,186.385z"/>
			<path style="fill:#00B7F0;" d="M333.305,186.486c0,1.228-0.995,2.223-2.223,2.223c-1.228,0-2.223-0.995-2.223-2.223
				c0-1.228,0.995-2.223,2.223-2.223C332.31,184.263,333.305,185.258,333.305,186.486z"/>
			<circle style="fill:#FF6196;" cx="321.651" cy="186.385" r="2.223"/>
			<path style="fill:#FF6196;" d="M344.814,321.76c0,1.436-1.164,2.599-2.6,2.599c-1.436,0-2.599-1.164-2.599-2.599
				c0-1.436,1.164-2.599,2.599-2.599C343.651,319.161,344.814,320.324,344.814,321.76z"/>
			<polygon style="opacity:0.29;fill:#FFFFFF;" points="270.166,178.541 227.02,178.541 158.406,314.87 201.552,314.87 			"/>
			<polygon style="opacity:0.29;fill:#FFFFFF;" points="269.537,195.88 209.65,314.87 238.031,314.87 297.918,195.88 			"/>
		</g>
		<g>
			<g>
				<g>
					<path style="fill:#0091C8;" d="M258.844,237.579c2.269,0,4.433,0.388,6.472,1.099v-8.305c0-0.839-0.68-1.52-1.52-1.52h-10.122
						c-0.839,0-1.52,0.68-1.52,1.52v8.404C254.251,237.891,256.481,237.49,258.844,237.579z"/>
				</g>
				<g>
					<path style="fill:#0091C8;" d="M273.315,243.574c2.536,2.554,4.291,5.564,5.263,9.031c0.034,0.257,0.069,0.513,0.103,0.77
						l6.656-3.843c0.727-0.42,0.976-1.349,0.556-2.076l-5.061-8.766c-0.42-0.727-1.349-0.976-2.076-0.556l-7.056,4.074
						C272.255,242.638,272.793,243.094,273.315,243.574z"/>
				</g>
				<g>
					<path style="fill:#0091C8;" d="M240.14,250.16c0.825-2.537,2.236-4.733,4.232-6.587c0.452-0.487,0.925-0.938,1.417-1.355
						l-7.076-4.085c-0.727-0.42-1.656-0.171-2.076,0.556l-5.061,8.766c-0.42,0.727-0.171,1.656,0.556,2.076l6.737,3.89
						C239.165,252.299,239.588,251.212,240.14,250.16z"/>
				</g>
				<g>
					<path style="fill:#0091C8;" d="M244.372,272.517c-2.536-2.554-4.291-5.564-5.263-9.031c-0.102-0.761-0.205-1.523-0.307-2.284
						l-6.669,3.85c-0.727,0.42-0.976,1.349-0.556,2.076l5.061,8.766c0.42,0.727,1.349,0.976,2.076,0.556l6.111-3.528
						C244.672,272.789,244.521,272.654,244.372,272.517z"/>
				</g>
				<g>
					<path style="fill:#0091C8;" d="M258.844,278.511c-2.349,0-4.586-0.417-6.689-1.177v6.875c0,0.839,0.68,1.52,1.52,1.52h10.122
						c0.839,0,1.52-0.68,1.52-1.52v-6.806C263.283,278.228,261.125,278.598,258.844,278.511z"/>
				</g>
				<g>
					<path style="fill:#0091C8;" d="M277.547,265.931c-0.825,2.537-2.236,4.733-4.232,6.587c-0.161,0.174-0.326,0.342-0.493,0.506
						l5.935,3.427c0.727,0.42,1.656,0.171,2.076-0.556l5.061-8.766c0.42-0.727,0.171-1.656-0.556-2.076l-6.254-3.611
						C278.81,263.003,278.299,264.5,277.547,265.931z"/>
				</g>
				<g>
					<path style="fill:#00B7F0;" d="M258.736,243.32c7.704,0,13.971,6.268,13.971,13.971c0,7.704-6.267,13.971-13.971,13.971
						c-7.704,0-13.971-6.268-13.971-13.971C244.764,249.588,251.032,243.32,258.736,243.32 M258.736,234.697
						c-12.479,0-22.595,10.116-22.595,22.595c0,12.479,10.116,22.595,22.595,22.595c12.479,0,22.595-10.116,22.595-22.595
						C281.33,244.813,271.214,234.697,258.736,234.697L258.736,234.697z"/>
				</g>
				<g>
					<path style="fill:#0091C8;" d="M258.736,250.882c3.535,0,6.41,2.876,6.41,6.41c0,3.535-2.876,6.41-6.41,6.41
						c-3.535,0-6.41-2.876-6.41-6.41C252.325,253.757,255.201,250.882,258.736,250.882 M258.736,240.662
						c-9.185,0-16.63,7.446-16.63,16.63c0,9.185,7.446,16.63,16.63,16.63c9.185,0,16.63-7.446,16.63-16.63
						C275.366,248.107,267.92,240.662,258.736,240.662L258.736,240.662z"/>
				</g>
			</g>
			<g>
				<g>
					<path style="fill:#E84281;" d="M220.099,248.777c0.983,0.543,1.827,1.23,2.541,2.027l1.99-3.598
						c0.201-0.364,0.069-0.821-0.294-1.022l-4.386-2.425c-0.364-0.201-0.821-0.069-1.022,0.294l-2.013,3.642
						C218.034,247.811,219.096,248.172,220.099,248.777z"/>
				</g>
				<g>
					<path style="fill:#E84281;" d="M224.933,254.841c0.487,1.714,0.526,3.439,0.117,5.174c-0.047,0.119-0.093,0.239-0.14,0.358
						l3.805-0.07c0.415-0.008,0.746-0.351,0.738-0.766l-0.093-5.011c-0.008-0.415-0.351-0.746-0.766-0.738l-4.033,0.075
						C224.697,254.181,224.821,254.508,224.933,254.841z"/>
				</g>
				<g>
					<path style="fill:#E84281;" d="M208.981,249.747c0.965-0.902,2.103-1.515,3.411-1.84c0.313-0.103,0.625-0.185,0.939-0.248
						l-2.087-3.465c-0.214-0.356-0.677-0.471-1.033-0.256l-4.293,2.586c-0.356,0.214-0.471,0.677-0.256,1.033l1.987,3.299
						C208.046,250.44,208.489,250.07,208.981,249.747z"/>
				</g>
				<g>
					<path style="fill:#E84281;" d="M205.458,260.448c-0.487-1.714-0.526-3.439-0.117-5.174c0.138-0.354,0.276-0.709,0.414-1.063
						l-3.812,0.071c-0.415,0.008-0.746,0.351-0.738,0.766l0.093,5.011c0.008,0.415,0.351,0.746,0.766,0.738l3.493-0.065
						C205.523,260.637,205.49,260.543,205.458,260.448z"/>
				</g>
				<g>
					<path style="fill:#E84281;" d="M210.293,266.512c-1.018-0.563-1.887-1.279-2.616-2.112l-1.647,2.979
						c-0.201,0.364-0.069,0.821,0.294,1.022l4.386,2.425c0.364,0.201,0.821,0.069,1.022-0.294l1.631-2.949
						C212.284,267.453,211.261,267.096,210.293,266.512z"/>
				</g>
				<g>
					<path style="fill:#E84281;" d="M221.41,265.542c-0.965,0.902-2.103,1.515-3.411,1.84c-0.111,0.037-0.223,0.07-0.335,0.101
						l1.751,2.907c0.214,0.356,0.677,0.471,1.033,0.256l4.293-2.586c0.356-0.214,0.471-0.677,0.256-1.033l-1.845-3.063
						C222.659,264.576,222.079,265.102,221.41,265.542z"/>
				</g>
				<g>
					<path style="fill:#FF6196;" d="M218.676,251.238c3.338,1.846,4.552,6.063,2.707,9.401c-1.846,3.338-6.063,4.552-9.401,2.707
						c-3.338-1.846-4.552-6.063-2.706-9.401C211.121,250.607,215.338,249.393,218.676,251.238 M220.742,247.502
						c-5.407-2.99-12.214-1.03-15.203,4.377c-2.99,5.407-1.03,12.214,4.377,15.203c5.407,2.99,12.214,1.03,15.203-4.377
						C228.109,257.298,226.149,250.491,220.742,247.502L220.742,247.502z"/>
				</g>
				<g>
					<path style="fill:#E84281;" d="M216.865,254.514c1.532,0.847,2.089,2.782,1.242,4.313c-0.847,1.531-2.782,2.089-4.313,1.242
						c-1.531-0.847-2.089-2.782-1.242-4.313C213.398,254.225,215.333,253.668,216.865,254.514 M219.313,250.086
						c-3.98-2.2-8.989-0.758-11.19,3.222c-2.2,3.98-0.758,8.989,3.222,11.19c3.98,2.2,8.989,0.758,11.19-3.222
						C224.735,257.296,223.293,252.286,219.313,250.086L219.313,250.086z"/>
				</g>
			</g>
		</g>
	</g>
	<g>
		<g>
			<polygon style="fill:#FFD23C;" points="180.072,284.258 173.723,273.094 139.132,273.094 136.207,273.094 116.532,273.094 
				116.532,376.815 133.687,376.815 190.79,376.815 190.79,376.814 190.79,290.865 			"/>
			<polygon style="fill:#FF9406;" points="173.723,275.58 173.723,290.866 190.79,297.563 190.79,290.866 			"/>
			<polygon style="fill:#FFFFFF;" points="173.723,273.094 173.723,290.866 190.79,290.866 			"/>
		</g>
		<g>
			
				<ellipse transform="matrix(0.6667 -0.7454 0.7454 0.6667 7.8749 325.0004)" style="fill:#FEC502;" cx="367.296" cy="153.696" rx="24.894" ry="24.894"/>
			<path style="fill:#FFD23C;" d="M381.571,137.647c5.485,5.215,7.008,12.518,3.402,16.311c-3.606,3.793-10.977,2.64-16.462-2.576
				c-5.485-5.216-7.008-12.518-3.402-16.311C368.715,131.278,376.086,132.431,381.571,137.647z"/>
			<path style="fill:#FEC502;" d="M373.773,185.778h-12.954c-2.755,0-5.05-2.111-5.28-4.856l-0.858-10.226h25.229l-0.858,10.226
				C378.823,183.668,376.528,185.778,373.773,185.778z"/>
			
				<line style="fill:none;stroke:#FFFFFF;stroke-width:2;stroke-linecap:round;stroke-miterlimit:10;" x1="367.296" y1="185.745" x2="358.003" y2="156.192"/>
			
				<line style="fill:none;stroke:#FFFFFF;stroke-width:2;stroke-linecap:round;stroke-miterlimit:10;" x1="367.719" y1="185.745" x2="377.012" y2="156.192"/>
			<circle style="fill:#78E9E1;" cx="367.296" cy="197.923" r="4.975"/>
			
				<line style="fill:none;stroke:#B6FFF6;stroke-width:7.2818;stroke-linecap:round;stroke-miterlimit:10;" x1="360.056" y1="188.805" x2="374.537" y2="188.805"/>
			
				<line style="fill:none;stroke:#B6FFF6;stroke-width:7.2818;stroke-linecap:round;stroke-miterlimit:10;" x1="362.08" y1="194.876" x2="372.513" y2="194.876"/>
			
				<line style="fill:none;stroke:#97F4EC;stroke-width:7.2818;stroke-linecap:round;stroke-miterlimit:10;" x1="362.08" y1="194.876" x2="363.153" y2="194.876"/>
			
				<line style="fill:none;stroke:#97F4EC;stroke-width:7.2818;stroke-linecap:round;stroke-miterlimit:10;" x1="360.056" y1="188.805" x2="365.177" y2="188.805"/>
		</g>
		
			<line style="fill:none;stroke:#FF9406;stroke-width:4;stroke-miterlimit:10;" x1="129.436" y1="303.199" x2="178.198" y2="303.199"/>
		
			<line style="fill:none;stroke:#FF9406;stroke-width:4;stroke-miterlimit:10;" x1="129.436" y1="313.911" x2="178.198" y2="313.911"/>
		
			<line style="fill:none;stroke:#FF9406;stroke-width:4;stroke-miterlimit:10;" x1="129.436" y1="324.623" x2="178.198" y2="324.623"/>
		
			<line style="fill:none;stroke:#FF9406;stroke-width:4;stroke-miterlimit:10;" x1="129.436" y1="335.335" x2="178.198" y2="335.335"/>
		<g>
			<path style="fill:#FFFFFF;" d="M158.444,224.606L158.444,224.606c-1.214,0-2.05-1.175-1.696-2.336
				c0.87-2.851,1.264-5.91,1.084-9.086c-0.74-13.056-11.357-23.686-24.413-24.432c-12.632-0.721-23.445,7.589-26.583,19.068
				c-0.325,1.19-1.753,1.645-2.758,0.93c-2.719-1.936-6.044-3.076-9.636-3.076c-9.188,0-16.637,7.448-16.637,16.637
				c0,0.447,0.024,0.888,0.064,1.325c0.048,0.523-0.367,0.97-0.892,0.97l0,0c-6.513,0-11.792,5.28-11.792,11.792v2.775
				c0,6.513,5.28,11.792,11.792,11.792h81.467c6.513,0,11.792-5.279,11.792-11.792v-2.775
				C170.236,229.885,164.956,224.606,158.444,224.606z"/>
			<g>
				<path style="fill:#AFE6FF;" d="M158.444,246.992H76.977c-6.31,0-11.448-4.961-11.762-11.193c-0.01,0.2-0.03,0.397-0.03,0.599
					v2.775c0,6.513,5.28,11.792,11.792,11.792h81.467c6.513,0,11.792-5.28,11.792-11.792v-2.775c0-0.202-0.02-0.399-0.03-0.599
					C169.892,242.031,164.754,246.992,158.444,246.992z"/>
			</g>
			<g>
				<rect x="103.679" y="223.159" style="fill:#00B7F0;" width="7.926" height="15.464"/>
				<rect x="103.679" y="223.159" style="fill:#0898BA;" width="7.926" height="4.624"/>
				<rect x="125.86" y="214.885" style="fill:#FF6196;" width="7.926" height="15.464"/>
				<rect x="125.86" y="225.471" style="fill:#E23979;" width="7.926" height="4.878"/>
				<polygon style="fill:#00B7F0;" points="98.603,226.35 107.642,214.989 116.682,226.35 				"/>
				<polygon style="fill:#FF6196;" points="120.784,227.157 129.823,238.519 138.862,227.157 				"/>
			</g>
		</g>
		<g>
			<path style="fill:#FFFFFF;" d="M428.989,294.485H324.128c-4.009,0-7.258-3.25-7.258-7.258v-56.805l53.224-8.013l66.154,8.013
				v56.805C436.247,291.236,432.998,294.485,428.989,294.485z"/>
			<path style="fill:#AFE6FF;" d="M428.989,289.506H324.128c-4.009,0-7.258-3.25-7.258-7.258v4.98c0,4.009,3.25,7.258,7.258,7.258
				h104.862c4.009,0,7.258-3.25,7.258-7.258v-4.98C436.247,286.256,432.998,289.506,428.989,289.506z"/>
			<path style="fill:#8757F3;" d="M436.247,230.422H316.869v-6.785c0-3.918,3.177-7.095,7.095-7.095h105.188
				c3.918,0,7.095,3.176,7.095,7.095V230.422z"/>
			
				<line style="fill:none;stroke:#FFFFFF;stroke-width:4;stroke-linecap:round;stroke-miterlimit:10;" x1="351.101" y1="224.022" x2="428.167" y2="224.022"/>
			<circle style="fill:#00B7F0;" cx="341.496" cy="224.136" r="2.7"/>
			<circle style="fill:#FEC502;" cx="333.679" cy="224.136" r="2.7"/>
			<circle style="fill:#FF6196;" cx="325.862" cy="224.136" r="2.7"/>
			<g>
				
					<polyline style="fill:none;stroke:#FF6196;stroke-width:5;stroke-linecap:round;stroke-linejoin:round;stroke-miterlimit:10;" points="
					393.756,253.396 401.358,260.998 393.756,268.6 				"/>
				
					<polyline style="fill:none;stroke:#FF6196;stroke-width:5;stroke-linecap:round;stroke-linejoin:round;stroke-miterlimit:10;" points="
					363.063,253.396 355.461,260.998 363.063,268.6 				"/>
				
					<line style="fill:none;stroke:#00B7F0;stroke-width:5;stroke-linecap:round;stroke-miterlimit:10;" x1="384.353" y1="250.208" x2="372.937" y2="271.788"/>
			</g>
		</g>
		<g>
			<g>
				<path style="fill:#FFFFFF;" d="M401.398,406.671H287.669c-3.021,0-5.469-2.449-5.469-5.469v-61.432l70.244-10.575l54.424,10.575
					v61.432C406.867,404.222,404.418,406.671,401.398,406.671z"/>
				<path style="fill:#AFE6FF;" d="M401.397,401.91H287.669c-3.021,0-5.469-2.449-5.469-5.47v4.761c0,3.021,2.449,5.469,5.469,5.469
					h113.729c3.021,0,5.469-2.449,5.469-5.469v-4.761C406.867,399.462,404.418,401.91,401.397,401.91z"/>
				<path style="fill:#00B7F0;" d="M406.867,339.769H282.199v-8.307c0-2.828,2.292-5.12,5.12-5.12h114.429
					c2.828,0,5.12,2.292,5.12,5.12V339.769z"/>
				
					<line style="fill:none;stroke:#FFFFFF;stroke-width:4;stroke-linecap:round;stroke-miterlimit:10;" x1="317.948" y1="333.086" x2="398.429" y2="333.086"/>
				<path style="fill:#8757F3;" d="M305.097,333.205c0,1.557,1.262,2.82,2.82,2.82c1.557,0,2.82-1.262,2.82-2.82
					c0-1.557-1.262-2.82-2.82-2.82C306.359,330.385,305.097,331.647,305.097,333.205z"/>
				<path style="fill:#FEC502;" d="M296.934,333.205c0,1.557,1.262,2.82,2.82,2.82s2.82-1.262,2.82-2.82
					c0-1.557-1.262-2.82-2.82-2.82S296.934,331.647,296.934,333.205z"/>
				<path style="fill:#FF6196;" d="M288.77,333.205c0,1.557,1.263,2.82,2.82,2.82c1.557,0,2.82-1.262,2.82-2.82
					c0-1.557-1.262-2.82-2.82-2.82C290.033,330.385,288.77,331.647,288.77,333.205z"/>
			</g>
			<g>
				
					<line style="fill:none;stroke:#FF6196;stroke-width:5;stroke-linecap:round;stroke-linejoin:round;stroke-miterlimit:10;" x1="376.4" y1="354.999" x2="382.718" y2="354.999"/>
				
					<line style="fill:none;stroke:#FF6196;stroke-width:5;stroke-linecap:round;stroke-linejoin:round;stroke-miterlimit:10;" x1="360.266" y1="354.999" x2="367.762" y2="354.999"/>
				
					<line style="fill:none;stroke:#FF6196;stroke-width:5;stroke-linecap:round;stroke-linejoin:round;stroke-miterlimit:10;" x1="345.985" y1="354.999" x2="352.138" y2="354.999"/>
				
					<line style="fill:none;stroke:#FF6196;stroke-width:5;stroke-linecap:round;stroke-linejoin:round;stroke-miterlimit:10;" x1="329.818" y1="354.999" x2="337.964" y2="354.999"/>
				
					<line style="fill:none;stroke:#FF6196;stroke-width:5;stroke-linecap:round;stroke-linejoin:round;stroke-miterlimit:10;" x1="316.106" y1="354.999" x2="322.112" y2="354.999"/>
				
					<line style="fill:none;stroke:#FF6196;stroke-width:5;stroke-linecap:round;stroke-linejoin:round;stroke-miterlimit:10;" x1="300.503" y1="354.999" x2="308.658" y2="354.999"/>
				
					<line style="fill:none;stroke:#FF6196;stroke-width:5;stroke-linecap:round;stroke-linejoin:round;stroke-miterlimit:10;" x1="373.633" y1="391.172" x2="381.71" y2="391.172"/>
				
					<line style="fill:none;stroke:#FF6196;stroke-width:5;stroke-linecap:round;stroke-linejoin:round;stroke-miterlimit:10;" x1="353.208" y1="391.172" x2="363.31" y2="391.172"/>
				
					<line style="fill:none;stroke:#FF6196;stroke-width:5;stroke-linecap:round;stroke-linejoin:round;stroke-miterlimit:10;" x1="334.959" y1="391.172" x2="343.7" y2="391.172"/>
				
					<line style="fill:none;stroke:#FF6196;stroke-width:5;stroke-linecap:round;stroke-linejoin:round;stroke-miterlimit:10;" x1="316.348" y1="391.172" x2="325.574" y2="391.172"/>
				
					<line style="fill:none;stroke:#FF6196;stroke-width:5;stroke-linecap:round;stroke-linejoin:round;stroke-miterlimit:10;" x1="300.503" y1="391.172" x2="307.465" y2="391.172"/>
				
					<line style="fill:none;stroke:#00B7F0;stroke-width:5;stroke-linecap:round;stroke-miterlimit:10;" x1="379.44" y1="367.056" x2="383.847" y2="367.056"/>
				
					<line style="fill:none;stroke:#00B7F0;stroke-width:5;stroke-linecap:round;stroke-miterlimit:10;" x1="363.838" y1="367.056" x2="370.967" y2="367.056"/>
				
					<line style="fill:none;stroke:#00B7F0;stroke-width:5;stroke-linecap:round;stroke-miterlimit:10;" x1="346.23" y1="367.056" x2="355.343" y2="367.056"/>
				
					<line style="fill:none;stroke:#00B7F0;stroke-width:5;stroke-linecap:round;stroke-miterlimit:10;" x1="328.822" y1="367.056" x2="336.277" y2="367.056"/>
				
					<line style="fill:none;stroke:#00B7F0;stroke-width:5;stroke-linecap:round;stroke-miterlimit:10;" x1="314.255" y1="367.056" x2="320.178" y2="367.056"/>
				
					<line style="fill:none;stroke:#00B7F0;stroke-width:5;stroke-linecap:round;stroke-miterlimit:10;" x1="300.503" y1="367.056" x2="306.109" y2="367.056"/>
				
					<line style="fill:none;stroke:#FEC502;stroke-width:5;stroke-linecap:round;stroke-miterlimit:10;" x1="343.7" y1="379.114" x2="349.255" y2="379.114"/>
				
					<line style="fill:none;stroke:#FEC502;stroke-width:5;stroke-linecap:round;stroke-miterlimit:10;" x1="323.181" y1="379.114" x2="334.762" y2="379.114"/>
				
					<line style="fill:none;stroke:#FEC502;stroke-width:5;stroke-linecap:round;stroke-miterlimit:10;" x1="300.591" y1="379.114" x2="314.339" y2="379.114"/>
			</g>
		</g>
		<g>
			<path d="M291.766,225.123h-83.878c-3.433,0-6.215-2.783-6.215-6.215v-67.505c0-3.432,2.783-6.215,6.215-6.215h83.878
				c3.433,0,6.215,2.783,6.215,6.215v67.505C297.981,222.341,295.198,225.123,291.766,225.123z"/>
			<path style="fill:#FF6196;" d="M291.766,221.089h-83.878c-3.433,0-6.215-2.783-6.215-6.215V147.37
				c0-3.433,2.783-6.215,6.215-6.215h83.878c3.433,0,6.215,2.783,6.215,6.215v67.505
				C297.981,218.307,295.198,221.089,291.766,221.089z"/>
			<path style="fill:#00B7F0;" d="M291.623,193.663H208.03c-3.511,0-6.358-2.847-6.358-6.358v27.426
				c0,3.512,2.847,6.358,6.358,6.358h83.592c3.512,0,6.358-2.847,6.358-6.358v-27.426
				C297.981,190.817,295.134,193.663,291.623,193.663z"/>
			<g>
				
					<text transform="matrix(1 0 0 1 218.8081 180.7783)" style="fill:#FFFFFF; font-family:'Dosis-ExtraBold'; font-size:33.7878px;">CMS</text>
				<polygon style="fill:#FFFFFF;" points="226.72,199.808 228.685,203.788 233.078,204.427 229.899,207.525 230.649,211.901 
					226.72,209.835 222.791,211.901 223.541,207.525 220.362,204.427 224.755,203.788 				"/>
				<polygon style="fill:#FFFFFF;" points="242.374,199.808 244.339,203.788 248.732,204.427 245.553,207.525 246.304,211.901 
					242.374,209.835 238.445,211.901 239.196,207.525 236.017,204.427 240.41,203.788 				"/>
				<polygon style="fill:#FFFFFF;" points="258.029,199.808 259.994,203.788 264.387,204.427 261.208,207.525 261.958,211.901 
					258.029,209.835 254.1,211.901 254.85,207.525 251.671,204.427 256.064,203.788 				"/>
				<polygon style="fill:#FFFFFF;" points="273.684,199.808 275.648,203.788 280.041,204.427 276.862,207.525 277.613,211.901 
					273.684,209.835 269.754,211.901 270.505,207.525 267.326,204.427 271.719,203.788 				"/>
			</g>
		</g>
		<g>
			<path style="fill:#00B7F0;" d="M154.984,115.651h-5.553v5.042c0,1.488-1.552,2.467-2.895,1.826l-14.393-6.868h-25.435
				c-3.107,0-5.627-2.519-5.627-5.627V75.187c0-3.108,2.519-5.627,5.627-5.627h48.275c3.108,0,5.627,2.519,5.627,5.627v34.837
				C160.61,113.132,158.091,115.651,154.984,115.651z"/>
			<g>
				<path style="fill:#0091C8;" d="M116.114,110.024V75.187c0-3.108,2.519-5.627,5.627-5.627h-15.032
					c-3.107,0-5.627,2.519-5.627,5.627v34.837c0,3.107,2.519,5.627,5.627,5.627h15.032
					C118.633,115.651,116.114,113.132,116.114,110.024z"/>
			</g>
			<g>
				<g>
					<path style="fill:#0091C8;" d="M125.594,87.341h-12.977v-3.948h16.175v0.75C128.793,85.91,127.361,87.341,125.594,87.341z"/>
				</g>
				<g>
					<path style="fill:#0091C8;" d="M141.058,95.402h-28.44v-3.948h31.639v0.75C144.256,93.97,142.824,95.402,141.058,95.402z"/>
				</g>
				<g>
					<path style="fill:#0091C8;" d="M133.267,103.463h-20.65v-3.948h23.085v1.513C135.702,102.373,134.612,103.463,133.267,103.463z
						"/>
				</g>
				<g>
					<path style="fill:#0091C8;" d="M146.734,103.463h-4.977c-1.345,0-2.435-1.09-2.435-2.435v-1.513h9.847v1.513
						C149.169,102.373,148.079,103.463,146.734,103.463z"/>
				</g>
				<g>
					<path style="fill:#FFFFFF;" d="M126.819,85.697h-12.227c-1.09,0-1.974-0.884-1.974-1.974l0,0c0-1.09,0.884-1.974,1.974-1.974
						h12.227c1.09,0,1.974,0.884,1.974,1.974l0,0C128.793,84.813,127.909,85.697,126.819,85.697z"/>
				</g>
				<g>
					<path style="fill:#FFFFFF;" d="M142.282,93.757h-27.691c-1.09,0-1.974-0.884-1.974-1.974l0,0c0-1.09,0.884-1.974,1.974-1.974
						h27.691c1.09,0,1.974,0.884,1.974,1.974l0,0C144.256,92.873,143.372,93.757,142.282,93.757z"/>
				</g>
				<g>
					<path style="fill:#FFFFFF;" d="M133.728,101.818h-19.137c-1.09,0-1.974-0.884-1.974-1.974l0,0c0-1.09,0.884-1.974,1.974-1.974
						h19.137c1.09,0,1.974,0.884,1.974,1.974l0,0C135.702,100.934,134.818,101.818,133.728,101.818z"/>
				</g>
				<g>
					<path style="fill:#FFFFFF;" d="M147.195,101.818h-5.899c-1.09,0-1.974-0.884-1.974-1.974l0,0c0-1.09,0.884-1.974,1.974-1.974
						h5.899c1.09,0,1.974,0.884,1.974,1.974l0,0C149.169,100.934,148.285,101.818,147.195,101.818z"/>
				</g>
			</g>
		</g>
		<g>
			<g>
				<path style="fill:#FEC502;" d="M176.728,134.317h5.553v5.042c0,1.488,1.552,2.467,2.895,1.826l14.393-6.868h18.05
					c3.107,0,5.627-2.519,5.627-5.627v-27.083c0-3.107-2.519-5.627-5.627-5.627h-40.89c-3.108,0-5.627,2.519-5.627,5.627v27.083
					C171.101,131.798,173.62,134.317,176.728,134.317z"/>
			</g>
			<g>
				<path style="fill:#FFA50A;" d="M193.345,134.025h-3.344c-3.107,0-5.627-2.519-5.627-5.627v-27.083
					c0-2.485,1.613-4.589,3.847-5.335h-11.493c-3.108,0-5.627,2.519-5.627,5.627v27.083c0,3.108,2.519,5.627,5.627,5.627h5.553
					v5.042c0,1.488,1.552,2.467,2.895,1.826l10.378-4.953l0,0C195.553,135.014,194.565,134.025,193.345,134.025z"/>
			</g>
			<g>
				<g>
					<path style="fill:#FFA50A;" d="M195.438,110.399h-13.558v-3.862h15.825v1.596C197.705,109.384,196.69,110.399,195.438,110.399z
						"/>
				</g>
				<g>
					<path style="fill:#FFA50A;" d="M195.438,118.285h-13.558v-3.863h15.825v1.596C197.705,117.27,196.69,118.285,195.438,118.285z"
						/>
				</g>
				<g>
					<path style="fill:#FFA50A;" d="M190.288,126.17h-8.408v-3.862h10.675v1.596C192.555,125.156,191.54,126.17,190.288,126.17z"/>
				</g>
				<g>
					<path style="fill:#FFA50A;" d="M213.029,110.399h-10.082c-1.252,0-2.267-1.015-2.267-2.267v-1.596h13.666v2.546
						C214.346,109.809,213.756,110.399,213.029,110.399z"/>
				</g>
				<g>
					<path style="fill:#FFA50A;" d="M212.079,126.17h-14.175c-1.311,0-2.374-1.063-2.374-2.374v-1.489h18.816v1.596
						C214.346,125.156,213.331,126.17,212.079,126.17z"/>
				</g>
				<g>
					<path style="fill:#FFFFFF;" d="M195.774,108.789h-11.962c-1.067,0-1.931-0.865-1.931-1.931l0,0
						c0-1.066,0.865-1.931,1.931-1.931h11.962c1.067,0,1.931,0.865,1.931,1.931l0,0C197.705,107.925,196.84,108.789,195.774,108.789
						z"/>
				</g>
				<g>
					<path style="fill:#FFFFFF;" d="M195.774,116.675h-11.962c-1.067,0-1.931-0.865-1.931-1.931l0,0
						c0-1.067,0.865-1.931,1.931-1.931h11.962c1.067,0,1.931,0.865,1.931,1.931l0,0C197.705,115.811,196.84,116.675,195.774,116.675
						z"/>
				</g>
				<g>
					<path style="fill:#FFFFFF;" d="M190.624,124.561h-6.812c-1.067,0-1.931-0.865-1.931-1.931l0,0c0-1.066,0.865-1.931,1.931-1.931
						h6.812c1.067,0,1.931,0.865,1.931,1.931l0,0C192.555,123.696,191.691,124.561,190.624,124.561z"/>
				</g>
				<g>
					<path style="fill:#FFFFFF;" d="M212.414,108.789h-9.803c-1.067,0-1.931-0.865-1.931-1.931l0,0c0-1.066,0.865-1.931,1.931-1.931
						h9.803c1.067,0,1.931,0.865,1.931,1.931l0,0C214.346,107.925,213.481,108.789,212.414,108.789z"/>
				</g>
				<g>
					<path style="fill:#FFA50A;" d="M212.079,118.285h-9.132c-1.252,0-2.267-1.015-2.267-2.267v-1.596h13.666v1.596
						C214.346,117.27,213.331,118.285,212.079,118.285z"/>
				</g>
				<g>
					<path style="fill:#FFFFFF;" d="M212.414,116.675h-9.803c-1.067,0-1.931-0.865-1.931-1.931l0,0c0-1.067,0.865-1.931,1.931-1.931
						h9.803c1.067,0,1.931,0.865,1.931,1.931l0,0C214.346,115.811,213.481,116.675,212.414,116.675z"/>
				</g>
				<g>
					<path style="fill:#FFFFFF;" d="M212.414,124.561h-14.953c-1.067,0-1.931-0.865-1.931-1.931l0,0
						c0-1.066,0.865-1.931,1.931-1.931h14.953c1.067,0,1.931,0.865,1.931,1.931l0,0
						C214.346,123.696,213.481,124.561,212.414,124.561z"/>
				</g>
			</g>
		</g>
		<g>
			<path style="fill:#D2F3FF;" d="M134.908,363.653c-3.699,0.671-6.154,4.212-5.483,7.911c0.671,3.699,4.212,6.153,7.911,5.483
				l52.085-9.442l-2.428-13.394L134.908,363.653z M136.459,373.117c-1.512,0.274-2.96-0.729-3.235-2.242
				c-0.274-1.512,0.73-2.961,2.242-3.235c1.512-0.274,2.96,0.729,3.235,2.242C138.975,371.395,137.971,372.843,136.459,373.117z"/>
			
				<rect x="174.81" y="355.307" transform="matrix(0.984 -0.1784 0.1784 0.984 -61.6783 38.1923)" style="fill:#00B7F0;" width="13.505" height="13.612"/>
			<path style="fill:#D2F3FF;" d="M194.45,359.776L194.45,359.776c-0.698-3.85,1.857-7.536,5.707-8.234l8.473-1.536
				c-3.752-5.438-10.469-8.473-17.396-7.158c-8.839,1.678-15.007,10.128-13.883,19.054c1.245,9.888,10.497,16.582,20.173,14.828
				c6.876-1.246,12.04-6.418,13.633-12.784l-8.473,1.536C198.835,366.181,195.148,363.626,194.45,359.776z"/>
			<path style="fill:#00B7F0;" d="M177.993,365.588l-31.101,5.638c-1.478,0.268-2.894-0.713-3.162-2.191l-0.022-0.123
				c-0.268-1.478,0.713-2.894,2.191-3.162L177,360.112L177.993,365.588z"/>
		</g>
	</g>
</g>
</svg>
